<svg id="Layer_1" enable-background="new 0 0 512 512" height="512" viewBox="0 0 512 512" width="512" xmlns="http://www.w3.org/2000/svg"><g><g><path clip-rule="evenodd" d="m116.209 102.896h-86.769c-11.906 0-21.685 9.61-21.94 21.459v263.262c.255 11.849 10.035 21.459 21.94 21.459h86.769z" fill="#e29d7b" fill-rule="evenodd"/></g><g><path clip-rule="evenodd" d="m116.209 102.896c-41.471 37.929-67.521 92.469-67.521 153.104 0 114.58 92.92 207.304 207.298 207.304 53.858 0 102.926-20.552 139.805-54.228 41.471-37.9 67.493-92.441 67.493-153.076s-26.022-115.175-67.493-153.104c-36.879-33.677-85.947-54.2-139.805-54.2s-102.926 20.524-139.777 54.2z" fill="#365e7d" fill-rule="evenodd"/></g><g><path clip-rule="evenodd" d="m255.986 83.053c-95.5 0-172.914 77.416-172.914 172.947 0 73.845 46.29 136.889 111.43 161.665 50.91-18.454 53.292-36.029 49.89-66.786-5.329-48.162 39.203-65.681 69.109-77.19 24.86-9.581 22.479-31.069 24.945-57.12 3.94-41.217 27.921-75.744 63.27-53.747-30.728-47.963-84.53-79.769-145.73-79.769z" fill="#ffd772" fill-rule="evenodd"/></g><g><path clip-rule="evenodd" d="m326.682 202.849c-2.466 26.079-.085 47.538-24.945 57.12-29.906 11.509-74.438 29.028-69.109 77.19 3.402 30.757 12.784 62.052-38.126 80.506 19.106 7.285 39.827 11.254 61.484 11.254 95.528 0 172.942-77.417 172.942-172.919 0-34.3-9.978-66.276-27.213-93.178-35.348-21.997-71.093-1.19-75.033 40.027z" fill="#f9f7f8" fill-rule="evenodd"/></g><g><path clip-rule="evenodd" d="m482.56 102.896h-86.769v306.179h86.769c11.906 0 21.657-9.61 21.94-21.431v-263.29c-.283-11.848-10.035-21.458-21.94-21.458z" fill="#e29d7b" fill-rule="evenodd"/></g><g><path clip-rule="evenodd" d="m176.644 305.211h-21.798c-1.899 0-3.43 1.559-3.43 3.43v31.777c0 1.899 1.531 3.43 3.43 3.43h21.798c1.871 0 3.402-1.531 3.402-3.43v-31.777c-.001-1.871-1.531-3.43-3.402-3.43z" fill="#f37c7c" fill-rule="evenodd"/></g><g><path clip-rule="evenodd" d="m163.973 226.746c-2.665-7.257-10.885-10.46-17.66-9.61-6.803.879-15.931 7.087-19.106 13.323-1.843 3.628-2.126 6.293-1.843 10.545.51 6.973.057 11.707 6.491 17.859 4.45 4.252 9.751 4.819 14.939 5.273 6.52.595 12.841.028 17.178-5.273 5.386-6.577 9.638-12.444 7.2-19.645-1.105-3.26-5.725-8.504-7.199-12.472z" fill="#e29d7b" fill-rule="evenodd"/></g><g><path clip-rule="evenodd" d="m255.135 199.986c-12.756-3.402-25.795-1.021-36.709 5.613-3.402 2.069-3.6 2.806-1.672 6.293 6.151 11.169 16.271 19.73 29.027 23.131 12.756 3.402 25.795 1.021 36.709-5.584 3.373-2.069 3.572-2.835 1.672-6.293-6.179-11.198-16.299-19.759-29.027-23.16z" fill="#a7e9a6" fill-rule="evenodd"/></g><g><path clip-rule="evenodd" d="m209.894 137.848c-4.224-4.025-9.184-4.536-14.088-4.961-6.123-.567-12.076-.028-16.158 4.961-5.074 6.18-9.099 11.736-6.803 18.511 1.049 3.062 5.414 7.994 6.803 11.736 2.494 6.832 10.233 9.865 16.639 9.043s14.995-6.662 17.972-12.558c1.757-3.402 2.013-5.925 1.729-9.922-.453-6.576-.056-10.998-6.094-16.81z" fill="#e29d7b" fill-rule="evenodd"/></g><g><path clip-rule="evenodd" d="m296.521 121.407h-25.001c-1.871 0-3.402 1.531-3.402 3.43v40.111c0 1.899 1.531 3.43 3.402 3.43h25.002c1.871 0 3.402-1.559 3.402-3.43v-40.111c-.001-1.899-1.532-3.43-3.403-3.43z" fill="#f37c7c" fill-rule="evenodd"/></g><g><path clip-rule="evenodd" d="m84.234 102.896c-36.283 40.679-58.309 94.312-58.309 153.104 0 58.821 22.054 112.425 58.309 153.076h31.975c-2.268-2.069-4.479-4.167-6.633-6.35-.028 0-.028-.028-.057-.028-.113-.113-.227-.227-.34-.34-37.361-37.504-60.491-89.238-60.491-146.358 0-60.635 26.05-115.175 67.521-153.104z" fill="#ce8b6b" fill-rule="evenodd"/></g><g><path clip-rule="evenodd" d="m401.715 162.822c-30.728-47.964-84.529-79.769-145.73-79.769-3.231 0-6.463.085-9.695.283 43.597 11.197 80.646 38.637 104.202 76.935 14.118-8.731 32.713-8.958 51.223 2.551z" fill="#fbba58" fill-rule="evenodd"/></g><g><path clip-rule="evenodd" d="m428.928 256c0-34.3-9.978-66.276-27.213-93.178-18.51-11.509-37.106-11.282-51.222-2.551 16.328 26.505 24.633 55.844 25.512 85.127 1.729 56.95-24.69 113.559-75.203 148.115-27.043 18.511-57.515 28.291-88.016 29.963 13.805 3.572 28.29 5.443 43.2 5.443 95.528 0 172.942-77.417 172.942-172.919z" fill="#e5e4ed" fill-rule="evenodd"/></g><g><path clip-rule="evenodd" d="m504.5 387.645v-263.29c-.283-11.849-10.035-21.459-21.94-21.459h-21.657c11.906 0 21.657 9.61 21.94 21.459v263.29c-.283 11.821-10.035 21.431-21.94 21.431h21.657c11.905 0 21.657-9.61 21.94-21.431z" fill="#ce8b6b" fill-rule="evenodd"/></g><g><path clip-rule="evenodd" d="m395.791 409.076c41.471-37.9 67.493-92.441 67.493-153.076s-26.022-115.175-67.493-153.104c-36.879-33.677-85.947-54.2-139.805-54.2-10.233 0-20.296.737-30.161 2.183 37.786 6.378 72.114 22.961 100.007 46.858 31.238 13.805 57.629 36.596 75.884 65.085 17.234 26.902 27.212 58.878 27.212 93.178 0 72.002-44.022 133.743-106.611 159.765-28.403 23.245-63.071 39.091-101.055 44.619 11.282 1.928 22.904 2.92 34.725 2.92 53.857 0 102.925-20.552 139.804-54.228z" fill="#2b4d66" fill-rule="evenodd"/></g><g><path d="m504.5 243.94c4.143 0 7.5-3.358 7.5-7.5v-111.603c0-16.234-13.207-29.441-29.44-29.441h-83.94c-39.346-35.036-89.513-54.2-142.634-54.2-24.725 0-48.992 4.17-72.13 12.396-3.903 1.388-5.942 5.676-4.555 9.579s5.678 5.939 9.578 4.555c21.521-7.65 44.099-11.529 67.106-11.529 110.17 0 199.799 89.631 199.799 199.804s-89.629 199.804-199.799 199.804c-110.169 0-199.798-89.631-199.798-199.804 0-72.686 39.554-139.732 103.226-174.974 3.624-2.006 4.936-6.57 2.93-10.194-2.005-3.624-6.571-4.935-10.193-2.93-14.087 7.797-27.073 17.046-38.819 27.494h-83.891c-16.233-.001-29.44 13.206-29.44 29.44v262.298c0 16.234 13.207 29.441 29.44 29.441h83.88c39.351 35.054 89.531 54.228 142.665 54.228 53.135 0 103.315-19.174 142.666-54.228h83.908c16.233 0 29.44-13.207 29.44-29.441v-116.054c0-4.142-3.357-7.5-7.5-7.5s-7.5 3.358-7.5 7.5v116.054c0 7.963-6.478 14.441-14.44 14.441h-68.639c36.727-39.772 56.863-91.122 56.863-145.576 0-54.466-20.146-105.828-56.89-145.604h68.665c7.963 0 14.44 6.478 14.44 14.441v111.603c.002 4.143 3.359 7.5 7.502 7.5zm-475.06 157.636c-7.963 0-14.44-6.478-14.44-14.441v-262.298c0-7.963 6.478-14.441 14.44-14.441h68.63c-36.019 39.116-56.882 90.871-56.882 145.604 0 54.454 20.136 105.804 56.863 145.576z"/><path d="m75.572 256c0 99.483 80.933 180.418 180.413 180.418 99.496 0 180.442-80.936 180.442-180.418 0-99.499-80.946-180.447-180.442-180.447-99.48 0-180.413 80.948-180.413 180.447zm320.616-87.732c15.981 25.449 25.239 55.527 25.239 87.732 0 91.212-74.217 165.418-165.442 165.418-14.081 0-27.755-1.774-40.814-5.1 12.452-7.387 20.591-16.624 24.657-27.963 5.064-14.124 3.137-29.159 1.272-43.699-.351-2.739-.714-5.571-1.019-8.322-4.371-39.508 27.944-55.355 64.353-69.367 25.86-9.967 27.404-31.857 28.896-53.026.238-3.372.483-6.858.816-10.378 1.727-18.056 10.184-32.106 23.203-38.547 11.657-5.765 25.387-4.586 38.839 3.252zm-140.203-77.715c49.498 0 93.982 21.857 124.327 56.419-10.314-1.429-20.468.074-29.613 4.598-17.776 8.794-29.252 27.225-31.484 50.572-.351 3.706-.603 7.283-.847 10.743-1.598 22.656-3.086 33.825-19.324 40.083-29.875 11.497-79.876 30.739-73.87 85.014.318 2.88.689 5.778 1.049 8.58 3.455 26.942 6.192 48.349-31.608 63.045-60.911-24.424-104.043-84.07-104.043-153.607 0-91.228 74.204-165.447 165.413-165.447z"/><path d="m271.52 175.878h25.002c6.011 0 10.901-4.903 10.901-10.93v-40.111c0-6.027-4.891-10.93-10.901-10.93h-25.002c-6.011 0-10.901 4.903-10.901 10.93v40.111c-.001 6.027 4.89 10.93 10.901 10.93zm4.098-46.971h16.805v31.972h-16.805z"/><path d="m169.775 165.977c1.085 1.62 2.437 3.636 2.828 4.69 3.496 9.572 13.015 14.099 21.627 14.099 1.021 0 2.028-.063 3.012-.19 9.035-1.159 19.672-8.613 23.681-16.554 2.587-5.006 2.893-9.028 2.549-13.881-.045-.646-.081-1.271-.115-1.877-.341-5.891-.726-12.568-8.261-19.82-.009-.009-.018-.017-.026-.025-6.222-5.929-13.385-6.55-18.572-7-6.529-.604-15.987-.466-22.645 7.67-4.739 5.771-11.9 14.492-8.102 25.701.828 2.418 2.381 4.734 4.024 7.187zm15.678-23.379c1.03-1.259 2.606-2.384 6.813-2.384.851 0 1.81.046 2.892.146 4.427.384 7.258.729 9.551 2.906 3.287 3.168 3.384 4.858 3.673 9.862.038.661.077 1.342.127 2.06.227 3.197-.003 4.191-.943 6.012-1.783 3.532-8.184 7.979-12.231 8.499-3.266.422-7.501-1.059-8.653-4.213-1.021-2.752-2.84-5.466-4.444-7.86-.813-1.214-2.043-3.048-2.286-3.673-.858-2.524.426-5.174 5.501-11.355z"/><path d="m148.921 186.098c4.143 0 7.5-3.372 7.5-7.514s-3.357-7.5-7.5-7.5-7.5 3.358-7.5 7.5v.028c0 4.142 3.357 7.486 7.5 7.486z"/><path d="m214.937 246.263c-3.354-2.424-8.046-1.67-10.471 1.689l-7.37 10.205c-2.425 3.358-1.669 8.046 1.689 10.471 1.327.959 2.862 1.42 4.385 1.42 2.326 0 4.62-1.079 6.086-3.109l7.37-10.205c2.425-3.358 1.669-8.046-1.689-10.471z"/><path d="m183.926 370.266c-2.929 2.929-2.929 7.678 0 10.606l.028.028c1.462 1.461 3.371 2.19 5.283 2.19 1.92 0 3.842-.736 5.31-2.204 2.929-2.929 2.915-7.692-.014-10.621-2.929-2.928-7.678-2.928-10.607.001z"/><path d="m119.692 287.293c-2.929 2.929-2.929 7.678 0 10.606l.028.028c1.462 1.461 3.371 2.19 5.283 2.19 1.92 0 3.842-.736 5.31-2.204 2.929-2.929 2.915-7.692-.014-10.621-2.929-2.928-7.677-2.928-10.607.001z"/><path d="m363.246 207.949c-2.929 2.929-2.929 7.678 0 10.606l.028.028c1.462 1.461 3.371 2.19 5.283 2.19 1.92 0 3.842-.736 5.31-2.204 2.929-2.929 2.915-7.692-.014-10.621-2.929-2.927-7.677-2.927-10.607.001z"/><path d="m285.236 318.957c-2.929 2.929-2.929 7.678 0 10.606l.028.028c1.462 1.461 3.371 2.19 5.283 2.19 1.92 0 3.842-.736 5.31-2.204 2.929-2.929 2.915-7.692-.014-10.621-2.929-2.928-7.677-2.928-10.607.001z"/><path d="m276.704 383.362c-2.929 2.929-2.929 7.678 0 10.606l.028.028c1.462 1.461 3.371 2.19 5.283 2.19 1.92 0 3.842-.736 5.31-2.204 2.929-2.929 2.915-7.692-.014-10.621-2.929-2.927-7.677-2.927-10.607.001z"/><path d="m376.994 270.828.028.028c1.462 1.461 3.371 2.19 5.283 2.19 1.92 0 3.842-.736 5.31-2.204 2.929-2.929 2.915-7.692-.014-10.621-2.93-2.929-7.678-2.929-10.607 0s-2.929 7.678 0 10.607z"/><path d="m336.997 290.213c-2.929 2.929-2.929 7.678 0 10.606l.028.028c1.462 1.461 3.371 2.19 5.283 2.19 1.92 0 3.842-.736 5.31-2.204 2.929-2.929 2.915-7.692-.014-10.621-2.929-2.928-7.677-2.928-10.607.001z"/><path d="m326.991 350.224c-2.929 2.929-2.929 7.678 0 10.606l.028.028c1.462 1.461 3.371 2.19 5.283 2.19 1.92 0 3.842-.736 5.31-2.204 2.929-2.929 2.915-7.692-.014-10.621-2.929-2.928-7.677-2.928-10.607.001z"/><path d="m210.185 215.51c7.402 13.441 19.358 22.945 33.664 26.76 4.519 1.205 9.117 1.801 13.712 1.801 9.935 0 19.846-2.789 28.852-8.239 6.773-4.156 8.147-9.334 4.324-16.296-.003-.004-.005-.009-.008-.014-7.426-13.455-19.378-22.966-33.66-26.782-14.31-3.816-29.415-1.525-42.54 6.452-6.824 4.151-8.203 9.339-4.344 16.318zm43.014-8.279c9.446 2.524 17.518 8.572 22.983 17.156-9.006 4.701-19.017 5.91-28.469 3.389-9.463-2.524-17.533-8.56-22.984-17.13 8.997-4.72 19.006-5.938 28.47-3.415z"/><path d="m187.546 340.418v-31.777c0-6.027-4.891-10.93-10.902-10.93h-21.798c-6.027 0-10.931 4.903-10.931 10.93v31.777c0 6.027 4.903 10.93 10.931 10.93h21.798c6.011 0 10.902-4.903 10.902-10.93zm-15-4.07h-13.631v-23.637h13.631z"/><path d="m118.021 243.651c.389 6.449.79 13.117 8.653 20.634 0 0 .001.001.002.001 6.473 6.185 13.982 6.842 19.438 7.318 1.388.127 2.901.222 4.491.222 6.243 0 13.65-1.464 19.171-8.211 4.951-6.047 12.435-15.184 8.5-26.806-.856-2.526-2.492-4.977-4.223-7.571-1.159-1.736-2.601-3.896-3.039-5.078-4.075-11.099-15.985-15.68-25.661-14.463-9.438 1.219-20.577 9.006-24.833 17.367-2.651 5.222-2.975 9.396-2.635 14.487.053.724.094 1.422.136 2.1zm15.87-9.79c2.002-3.932 8.881-8.706 13.356-9.284 3.733-.467 8.374 1.183 9.695 4.781 1.06 2.852 2.876 5.574 4.633 8.207.887 1.329 2.228 3.337 2.494 4.058.981 2.901-.342 5.702-5.901 12.491-1.613 1.971-4.044 3.16-10.72 2.55-4.818-.421-7.924-.848-10.409-3.222-3.609-3.45-3.729-5.422-4.045-10.692-.045-.74-.091-1.502-.146-2.245-.22-3.298-.025-4.541 1.043-6.644z"/></g></g></svg>